<svg width="28" height="28" viewBox="0 0 28 28" fill="none" xmlns="http://www.w3.org/2000/svg">
<path fill-rule="evenodd" clip-rule="evenodd" d="M10.4894 24.1178V20.6678C10.4893 19.7902 11.2048 19.0772 12.0911 19.0713H15.338C16.2286 19.0713 16.9506 19.7861 16.9506 20.6678V24.1285C16.9504 24.8736 17.551 25.4825 18.3034 25.5H20.468C22.6258 25.5 24.375 23.7683 24.375 21.6321V11.8176C24.3635 10.9772 23.9649 10.188 23.2927 9.67466L15.8899 3.77096C14.5931 2.74301 12.7495 2.74301 11.4526 3.77096L4.08228 9.68538C3.40754 10.1967 3.00831 10.9871 3 11.8283V21.6321C3 23.7683 4.74923 25.5 6.90703 25.5H9.07158C9.84265 25.5 10.4677 24.8812 10.4677 24.1178" fill="#EF7C23"/>
</svg>
