<svg width="28" height="28" viewBox="0 0 28 28" fill="none" xmlns="http://www.w3.org/2000/svg">
<path d="M10.1309 17.8686C6.17871 13.9159 4.56287 11.1099 4.00416 9.22035C3.45734 7.37102 3.92089 6.40289 4.20145 6.01012C4.21655 5.98898 4.23054 5.96707 4.24337 5.94448C4.24309 5.94498 4.2439 5.94374 4.2458 5.94086C4.26676 5.90899 4.41995 5.6761 4.68629 5.36287C4.97098 5.02805 5.35751 4.63437 5.80727 4.31833C6.2598 4.00034 6.73524 3.78967 7.20755 3.75508C7.65586 3.72225 8.171 3.84192 8.74719 4.31376C10.4948 5.75316 11.1131 6.67664 11.2951 7.28921C11.4565 7.83257 11.309 8.23182 11.0094 8.85097C10.9894 8.89228 10.9685 8.93479 10.9471 8.97852C10.6608 9.56228 10.2684 10.3626 10.3975 11.3945C10.535 12.493 11.231 13.7063 12.7626 15.2381L12.7627 15.2382C14.2946 16.7697 15.5079 17.4658 16.6064 17.6032C17.6384 17.7323 18.4388 17.3397 19.0225 17.0534C19.0662 17.032 19.1087 17.0112 19.1499 16.9912C19.7691 16.6915 20.1683 16.5439 20.7115 16.7051C21.3238 16.8869 22.247 17.505 23.6861 19.2521C24.158 19.8286 24.2778 20.344 24.2449 20.7925C24.2103 21.265 23.9997 21.7405 23.6818 22.193C23.3658 22.6427 22.9722 23.0291 22.6376 23.3136C22.3282 23.5767 22.0979 23.7287 22.0626 23.752C22.0589 23.7544 22.0573 23.7554 22.058 23.755C22.0348 23.7682 22.0123 23.7825 21.9906 23.798C21.598 24.0789 20.6297 24.5428 18.78 23.9959C16.8901 23.4373 14.0837 21.8212 10.1309 17.8686ZM10.1309 17.8686L9.60056 18.3989L10.1309 17.8686Z" stroke="#0D0D0D" stroke-opacity="0.9" stroke-width="1.5" stroke-linecap="round" stroke-linejoin="round"/>
</svg>
